<svg width="220" height="220" viewBox="0 0 220 220" fill="none" xmlns="http://www.w3.org/2000/svg">
  <defs>
    <linearGradient id="bladeA" x1="39" y1="44" x2="185" y2="185" gradientUnits="userSpaceOnUse">
      <stop stop-color="#7DD3FC"/>
      <stop offset="0.48" stop-color="#8B5CF6"/>
      <stop offset="1" stop-color="#D946EF"/>
    </linearGradient>
    <linearGradient id="bladeB" x1="180" y1="39" x2="43" y2="180" gradientUnits="userSpaceOnUse">
      <stop stop-color="#C084FC"/>
      <stop offset="0.55" stop-color="#6D5DF6"/>
      <stop offset="1" stop-color="#38BDF8"/>
    </linearGradient>
    <linearGradient id="hub" x1="68" y1="68" x2="150" y2="153" gradientUnits="userSpaceOnUse">
      <stop stop-color="#60A5FA"/>
      <stop offset="1" stop-color="#A855F7"/>
    </linearGradient>
    <filter id="shadow" x="-20%" y="-20%" width="140%" height="140%" color-interpolation-filters="sRGB">
      <feDropShadow dx="0" dy="10" stdDeviation="12" flood-color="#000000" flood-opacity="0.45"/>
    </filter>
  </defs>
  <rect width="220" height="220" rx="48" fill="#0A0A0F"/>
  <g filter="url(#shadow)">
    <path d="M106.5 24C78.2 34.7 58.1 57.1 51.1 84.1C74.9 65.3 101.4 55.7 130.4 56.9C154.7 57.9 174.9 67.4 194.6 84.2C183.2 43.7 146 19.3 106.5 24Z" fill="url(#bladeA)"/>
    <path d="M196 91.4C174.5 70.2 145.7 62.6 119.3 70.4C147.2 82.3 168 101.5 181.2 127.3C192.2 148.9 194.4 171.1 188.6 196.3C218.2 166.3 219.1 121.4 196 91.4Z" fill="url(#bladeB)"/>
    <path d="M183.2 200.7C190 171.2 181.6 142.6 161.4 123.9C165.4 153.9 159.8 181.7 143.9 206C130.6 226.3 112.5 239.3 87.4 246.2C127.4 258.6 167 237.2 183.2 200.7Z" transform="translate(-19 -34)" fill="url(#bladeA)"/>
    <path d="M71.5 195.3C100.4 204.2 129.6 198.4 150 179.8C119.8 181 92.7 172.9 69.9 155C50.8 140 39.5 120.8 34.9 95.2C19 134.1 36.8 175.3 71.5 195.3Z" fill="url(#bladeB)"/>
    <path d="M25.2 126.8C51.9 141 81.6 139 104.9 124.2C75.1 119.4 50.1 105.9 31.1 84.1C15.1 65.8 7.1 45 7.3 19C-14.3 55.2-3.3 98.8 25.2 126.8Z" transform="translate(25 35)" fill="url(#bladeA)"/>
    <path d="M44.6 42.3C35.3 71.1 40.6 100.4 58.7 121.2C58.1 91.1 66.7 64.1 85.2 41.7C100.6 23 120 12.1 145.7 7.9C107.1-8.8 65.5 8.2 44.6 42.3Z" fill="url(#bladeB)"/>
  </g>
  <circle cx="110" cy="110" r="47" fill="#09090B" stroke="rgba(255,255,255,0.08)" stroke-width="2"/>
  <g stroke="url(#hub)" stroke-width="8" stroke-linecap="round" stroke-linejoin="round">
    <path d="M110 75V145"/>
    <path d="M75 110H145"/>
    <path d="M85 85L135 135"/>
    <path d="M135 85L85 135"/>
    <path d="M93 110L110 93L127 110L110 127L93 110Z"/>
  </g>
  <g fill="url(#hub)">
    <circle cx="110" cy="75" r="9"/>
    <circle cx="110" cy="145" r="9"/>
    <circle cx="75" cy="110" r="9"/>
    <circle cx="145" cy="110" r="9"/>
  </g>
</svg>
